<svg width="24" height="23" viewBox="0 0 24 23" fill="none" xmlns="http://www.w3.org/2000/svg">
<path d="M4.54536 10.1627C3.78583 10.1627 3.01561 9.88456 2.42724 9.31759C0.458887 7.44551 -0.332733 5.40228 0.127262 3.40183C0.672838 1.04836 2.73747 0 4.54536 0C6.35325 0 8.42858 1.05906 8.96346 3.40183C9.42344 5.40228 8.62114 7.44551 6.66348 9.31759C6.07511 9.88456 5.31559 10.1627 4.54536 10.1627ZM1.68911 3.76555C1.2826 5.55204 2.47003 7.13528 3.53979 8.15155C4.10676 8.69713 4.99466 8.68643 5.56163 8.15155C6.63139 7.13528 7.81882 5.55204 7.40161 3.75485C7.0379 2.17161 5.63651 1.60464 4.55606 1.60464C3.46491 1.60464 2.06352 2.17161 1.68911 3.76555Z" fill="url(#paint0_linear_46_21)"/>
<path d="M4.58831 5.29551C3.99995 5.29551 3.51855 4.81412 3.51855 4.22576C3.51855 3.63739 3.98925 3.156 4.58831 3.156H4.59901C5.18738 3.156 5.66877 3.63739 5.66877 4.22576C5.66877 4.81412 5.18738 5.29551 4.58831 5.29551Z" fill="url(#paint1_linear_46_21)"/>
<path d="M18.4737 23C17.7142 23 16.944 22.7219 16.3449 22.1549C14.3658 20.2828 13.5635 18.2396 14.0342 16.2284C14.5798 13.8857 16.6551 12.8266 18.4737 12.8266C20.2923 12.8266 22.3676 13.8857 22.9132 16.2284C23.3732 18.2289 22.5709 20.2828 20.5918 22.1442C20.0035 22.7219 19.2439 23 18.4737 23ZM18.4737 14.4419C17.3826 14.4419 15.9705 15.0089 15.5961 16.6029C15.1789 18.3893 16.377 19.9833 17.4467 20.9996C18.0137 21.5451 18.9123 21.5451 19.49 20.9996C20.5597 19.9833 21.7579 18.4 21.3407 16.6135C20.9876 15.0089 19.5756 14.4419 18.4737 14.4419Z" fill="url(#paint2_linear_46_21)"/>
<path d="M18.5165 18.1326C17.9282 18.1326 17.4468 17.6512 17.4468 17.0628C17.4468 16.4745 17.9175 15.9931 18.5165 15.9931H18.5272C19.1156 15.9931 19.597 16.4745 19.597 17.0628C19.597 17.6512 19.1049 18.1326 18.5165 18.1326Z" fill="url(#paint3_linear_46_21)"/>
<path d="M11.5309 19.7905H8.66395C7.42303 19.7905 6.34258 19.0417 5.91467 17.8863C5.47607 16.731 5.797 15.458 6.72769 14.6343L15.275 7.15668C15.7885 6.70738 15.7992 6.09762 15.6494 5.68041C15.489 5.26321 15.0825 4.81391 14.3978 4.81391H11.5309C11.0923 4.81391 10.7285 4.45019 10.7285 4.01159C10.7285 3.57299 11.0923 3.20927 11.5309 3.20927H14.3978C15.6387 3.20927 16.7192 3.9581 17.1471 5.11344C17.5857 6.26878 17.2648 7.54179 16.3341 8.36551L7.78675 15.8431C7.27327 16.2924 7.26257 16.9022 7.41233 17.3194C7.5728 17.7366 7.9793 18.1859 8.66395 18.1859H11.5309C11.9695 18.1859 12.3332 18.5496 12.3332 18.9882C12.3332 19.4268 11.9695 19.7905 11.5309 19.7905Z" fill="url(#paint4_linear_46_21)"/>
<path d="M11.5309 19.7905H8.66395C7.42303 19.7905 6.34258 19.0417 5.91467 17.8863C5.47607 16.731 5.797 15.458 6.72769 14.6343L15.275 7.15668C15.7885 6.70738 15.7992 6.09762 15.6494 5.68041C15.489 5.26321 15.0825 4.81391 14.3978 4.81391H11.5309C11.0923 4.81391 10.7285 4.45019 10.7285 4.01159C10.7285 3.57299 11.0923 3.20927 11.5309 3.20927H14.3978C15.6387 3.20927 16.7192 3.9581 17.1471 5.11344C17.5857 6.26878 17.2648 7.54179 16.3341 8.36551L7.78675 15.8431C7.27327 16.2924 7.26257 16.9022 7.41233 17.3194C7.5728 17.7366 7.9793 18.1859 8.66395 18.1859H11.5309C11.9695 18.1859 12.3332 18.5496 12.3332 18.9882C12.3332 19.4268 11.9695 19.7905 11.5309 19.7905Z" fill="url(#paint5_linear_46_21)"/>
<defs>
<linearGradient id="paint0_linear_46_21" x1="4.54546" y1="0" x2="4.54546" y2="10.1627" gradientUnits="userSpaceOnUse">
<stop stop-color="#67B26F"/>
<stop offset="1" stop-color="#4CA2CD"/>
</linearGradient>
<linearGradient id="paint1_linear_46_21" x1="4.59365" y1="3.15578" x2="4.59365" y2="5.2953" gradientUnits="userSpaceOnUse">
<stop stop-color="#67B26F"/>
<stop offset="1" stop-color="#4CA2CD"/>
</linearGradient>
<linearGradient id="paint2_linear_46_21" x1="18.4715" y1="12.8264" x2="18.4715" y2="22.9998" gradientUnits="userSpaceOnUse">
<stop stop-color="#67B26F"/>
<stop offset="1" stop-color="#4CA2CD"/>
</linearGradient>
<linearGradient id="paint3_linear_46_21" x1="18.5219" y1="15.9929" x2="18.5219" y2="18.1324" gradientUnits="userSpaceOnUse">
<stop stop-color="#67B26F"/>
<stop offset="1" stop-color="#4CA2CD"/>
</linearGradient>
<linearGradient id="paint4_linear_46_21" x1="11.531" y1="3.20927" x2="11.531" y2="19.7905" gradientUnits="userSpaceOnUse">
<stop stop-color="#67B26F"/>
<stop offset="1" stop-color="#4CA2CD"/>
</linearGradient>
<linearGradient id="paint5_linear_46_21" x1="11.531" y1="3.20927" x2="11.531" y2="19.7905" gradientUnits="userSpaceOnUse">
<stop stop-color="#67B26F"/>
<stop offset="1" stop-color="#4CA2CD"/>
</linearGradient>
</defs>
</svg>
