<svg width="19" height="20" viewBox="0 0 19 20" fill="none" xmlns="http://www.w3.org/2000/svg">
<path d="M17.8676 12.0878C17.6013 12.0878 17.3855 12.3037 17.3855 12.57V16.8508C17.3845 17.6494 16.7376 18.2965 15.939 18.2972H2.4107C1.61215 18.2965 0.965221 17.6494 0.964279 16.8508V4.28676C0.965221 3.48841 1.61215 2.84129 2.4107 2.84034H6.69157C6.95788 2.84034 7.17371 2.62451 7.17371 2.3582C7.17371 2.09209 6.95788 1.87606 6.69157 1.87606H2.4107C1.07992 1.87757 0.00150669 2.95598 0 4.28676V16.851C0.00150669 18.1818 1.07992 19.2602 2.4107 19.2617H15.939C17.2698 19.2602 18.3482 18.1818 18.3497 16.851V12.57C18.3497 12.3037 18.1339 12.0878 17.8676 12.0878Z" fill="url(#paint0_linear_106_419)"/>
<path d="M17.7999 0.635492C16.9526 -0.211831 15.5789 -0.211831 14.7316 0.635492L6.1299 9.23716C6.07095 9.29611 6.02838 9.36919 6.00616 9.44942L4.87502 13.5331C4.8285 13.7005 4.87577 13.8798 4.99856 14.0028C5.12155 14.1256 5.30084 14.1729 5.46827 14.1265L9.55196 12.9952C9.63219 12.973 9.70526 12.9304 9.76421 12.8715L18.3657 4.26962C19.2117 3.42173 19.2117 2.04914 18.3657 1.20125L17.7999 0.635492ZM7.18043 9.55055L14.2202 2.51056L16.4906 4.78095L9.45063 11.8209L7.18043 9.55055ZM6.72692 10.4606L8.54078 12.2746L6.03177 12.9698L6.72692 10.4606ZM17.6839 3.58784L17.1726 4.09917L14.902 1.8286L15.4135 1.31727C15.8842 0.846616 16.6473 0.846616 17.118 1.31727L17.6839 1.88303C18.1538 2.35424 18.1538 3.11682 17.6839 3.58784Z" fill="url(#paint1_linear_106_419)"/>
<defs>
<linearGradient id="paint0_linear_106_419" x1="9.17487" y1="-0.1084" x2="9.17487" y2="20.5272" gradientUnits="userSpaceOnUse">
<stop stop-color="#00EFD1"/>
<stop offset="1" stop-color="#00ACEA"/>
</linearGradient>
<linearGradient id="paint1_linear_106_419" x1="11.9288" y1="-0.108405" x2="11.9288" y2="20.5272" gradientUnits="userSpaceOnUse">
<stop stop-color="#00EFD1"/>
<stop offset="1" stop-color="#00ACEA"/>
</linearGradient>
</defs>
</svg>
