<svg width="25" height="24" viewBox="0 0 25 24" fill="none" xmlns="http://www.w3.org/2000/svg">
<path d="M16.9643 1.77462C17.95 1.77462 18.75 2.57462 18.75 3.56034C18.75 5.15081 16.8274 5.94843 15.7018 4.82284C14.5762 3.69724 15.3738 1.77462 16.9643 1.77462ZM16.4554 0.026407C15.0554 0.253788 13.9232 1.29129 13.572 2.66748H0.892857C-0.297619 2.66748 -0.297619 4.45319 0.892857 4.45319H13.5298C13.9345 6.02284 15.3435 7.11986 16.9643 7.13176C18.5893 7.127 20.0077 6.0276 20.4149 4.45319H24.1071C25.2976 4.45319 25.2976 2.66748 24.1071 2.66748H20.3405C19.8893 0.940693 18.2292 -0.189664 16.4554 0.026407Z" fill="black"/>
<path d="M8.03571 9.81033C9.02143 9.81033 9.82143 10.6103 9.82143 11.596C9.82143 13.1865 7.89881 13.9841 6.77321 12.8585C5.64762 11.7329 6.44524 9.81033 8.03571 9.81033ZM7.52679 8.06211C6.12679 8.28949 4.99464 9.32699 4.64345 10.7032H0.892857C-0.297619 10.7032 -0.297619 12.4889 0.892857 12.4889H4.60119C5.00595 14.0585 6.41488 15.1556 8.03571 15.1675C9.66071 15.1627 11.0792 14.0633 11.4863 12.4889H24.1071C25.2976 12.4889 25.2976 10.7032 24.1071 10.7032H11.4119C10.9607 8.9764 9.3006 7.84604 7.52679 8.06211Z" fill="black"/>
<path d="M16.9644 17.846C17.9501 17.846 18.7501 18.646 18.7501 19.6318C18.7501 21.2222 16.8275 22.0198 15.7019 20.8943C14.5763 19.7687 15.3739 17.846 16.9644 17.846ZM16.4555 16.0984C15.0555 16.3258 13.9234 17.3633 13.5722 18.7395H3.57157C2.38109 18.7395 2.38109 20.5252 3.57157 20.5252H13.5299C13.9347 22.0949 15.3436 23.1919 16.9644 23.2038C18.5894 23.199 20.0079 22.0996 20.415 20.5252H24.1073C25.2978 20.5252 25.2978 18.7395 24.1073 18.7395H20.3406C19.8894 17.0115 18.2293 15.8818 16.4555 16.0984Z" fill="black"/>
<path d="M1.78571 19.6317C1.78571 20.1246 1.38571 20.5246 0.892857 20.5246C0.4 20.5246 0 20.1252 0 19.6317C0 19.1383 0.4 18.7389 0.892857 18.7389C1.38571 18.7389 1.78571 19.1389 1.78571 19.6317Z" fill="black"/>
</svg>
