<svg width="28" height="24" viewBox="0 0 28 24" fill="none" xmlns="http://www.w3.org/2000/svg">
<path d="M13.2781 4.03255L14 4.78566L14.7219 4.03255C17.5342 1.09868 20.6691 0.524814 22.9926 1.33621C25.3111 2.14586 27.0564 4.40858 26.9986 7.69144C26.9465 10.6498 24.8774 13.7818 22.0186 16.6267C19.4005 19.2322 16.2837 21.4356 14 22.8328C11.7165 21.4357 8.59995 19.2325 5.98194 16.6273C3.12328 13.7826 1.05404 10.6507 1.00142 7.6925C0.943006 4.40967 2.6882 2.14644 5.00675 1.33642C7.33023 0.52467 10.4654 1.09823 13.2781 4.03255Z" stroke="url(#paint0_linear_101_325)" stroke-width="2"/>
<defs>
<linearGradient id="paint0_linear_101_325" x1="14" y1="24" x2="14" y2="0" gradientUnits="userSpaceOnUse">
<stop stop-color="#FD3A84"/>
<stop offset="1" stop-color="#FFA68D"/>
</linearGradient>
</defs>
</svg>
