<svg width="20" height="26" viewBox="0 0 20 26" fill="none" xmlns="http://www.w3.org/2000/svg">
  <path fill-rule="evenodd" clip-rule="evenodd"
    d="M16.0016 10.2749V6.37583C16.0016 3.03044 13.2792 0.307983 9.95687 0.307983C6.63456 0.307983 3.91211 3.03044 3.91211 6.37583V10.2749H6.93449V6.37583C6.93449 4.71467 8.29571 3.35343 9.95687 3.35343C11.618 3.35343 12.9792 4.71467 12.9792 6.37583V10.2749H16.0016Z"
    fill="white" />
  <path fill-rule="evenodd" clip-rule="evenodd"
    d="M0.866211 14.5201V22.0876C0.866211 23.7718 2.22744 25.1099 3.88859 25.1099H16.0012C17.6623 25.1099 19.0236 23.7487 19.0236 22.0876V14.5201C19.0236 12.8358 17.6623 11.4977 16.0012 11.4977H3.88859C2.22744 11.4977 0.866211 12.8589 0.866211 14.5201ZM9.95642 16.0428C10.787 16.0428 11.4791 16.7119 11.4791 17.5655C11.4791 18.1192 11.1792 18.5807 10.7178 18.8575V21.3723C10.7178 21.7876 10.3717 22.1337 9.95642 22.1337C9.54113 22.1337 9.19506 21.7876 9.19506 21.3723V18.8575C8.7567 18.6037 8.43369 18.1192 8.43369 17.5655C8.43369 16.7349 9.10277 16.0428 9.95642 16.0428Z"
    fill="white" />
</svg>