<svg width="27" height="27" viewBox="0 0 27 27" fill="none" xmlns="http://www.w3.org/2000/svg">
<path d="M20.2365 19.4352C20.8992 20.0905 20.9052 21.1589 20.2498 21.8216C18.0093 24.0873 15.0209 25.3351 11.8352 25.3351C8.67391 25.3351 5.7018 24.104 3.46644 21.8687C1.23108 19.6334 0 16.6613 0 13.5C0 10.3387 1.23108 7.36662 3.46644 5.13127C5.7018 2.89591 8.67385 1.66483 11.8352 1.66483C15.0209 1.66483 18.0093 2.91263 20.2498 5.17836C20.9051 5.84102 20.8992 6.90952 20.2365 7.5648C19.5738 8.22008 18.5053 8.21412 17.8501 7.55146C16.2484 5.93183 14.1122 5.03983 11.8352 5.03983C7.17024 5.03983 3.375 8.83507 3.375 13.5C3.375 18.1649 7.17024 21.9601 11.8352 21.9601C14.1123 21.9601 16.2484 21.0681 17.8501 19.4485C18.5054 18.7859 19.5738 18.7799 20.2365 19.4352ZM26.5057 12.3068L23.1926 8.99369C22.5336 8.33467 21.4652 8.33467 20.8061 8.99369C20.1471 9.65271 20.1471 10.7212 20.8061 11.3802L21.2385 11.8125H12.4196C11.4877 11.8125 10.7321 12.568 10.7321 13.5C10.7321 14.432 11.4877 15.1875 12.4196 15.1875H21.2385L20.8062 15.6198C20.1472 16.2788 20.1472 17.3473 20.8062 18.0063C21.1357 18.3358 21.5676 18.5006 21.9994 18.5006C22.4313 18.5006 22.8631 18.3358 23.1926 18.0063L26.5057 14.6932C27.1647 14.0343 27.1647 12.9657 26.5057 12.3068Z" fill="url(#paint0_linear_103_388)"/>
<defs>
<linearGradient id="paint0_linear_103_388" x1="13.5" y1="1.66483" x2="13.5" y2="25.3352" gradientUnits="userSpaceOnUse">
<stop stop-color="#01F1FE"/>
<stop offset="1" stop-color="#4FADFE"/>
</linearGradient>
</defs>
</svg>
