<svg width="21" height="22" viewBox="0 0 21 22" fill="none" xmlns="http://www.w3.org/2000/svg">
<path fill-rule="evenodd" clip-rule="evenodd" d="M20.5926 0.426823C20.4009 0.226128 20.1574 0.0884165 19.8921 0.0305808C19.6267 -0.027255 19.351 -0.00270021 19.0988 0.101233L0.881911 7.61913C0.609563 7.73131 0.37793 7.93063 0.219981 8.18872C0.062032 8.44681 -0.0141855 8.75052 0.00217631 9.05662C0.0185382 9.36272 0.126646 9.65562 0.311112 9.89362C0.495579 10.1316 0.747005 10.3026 1.02961 10.3822L8.95195 12.6218L11.0897 20.9214C11.1657 21.2174 11.3289 21.4808 11.5561 21.6741C11.7833 21.8673 12.0629 21.9806 12.355 21.9977C12.6472 22.0149 12.9371 21.935 13.1835 21.7695C13.4299 21.6041 13.6201 21.3614 13.7272 21.0761L20.9034 1.99171C21.0026 1.72748 21.026 1.43867 20.9708 1.16069C20.9156 0.882717 20.7841 0.627665 20.5926 0.426823ZM12.4343 20.5129L10.3022 12.2353C10.2387 11.9894 10.1148 11.7653 9.94282 11.5852C9.77089 11.4051 9.55693 11.2753 9.32224 11.2087L1.41949 8.97355L19.593 1.47399L12.4343 20.5129Z" fill="url(#paint0_linear_46_43)"/>
<defs>
<linearGradient id="paint0_linear_46_43" x1="0" y1="11.0013" x2="21" y2="11.0013" gradientUnits="userSpaceOnUse">
<stop stop-color="#0061FF"/>
<stop offset="1" stop-color="#60EFFF"/>
</linearGradient>
</defs>
</svg>
