<svg width="25" height="32" viewBox="0 0 25 32" fill="none" xmlns="http://www.w3.org/2000/svg">
<g id="Group">
<g id="Group_2">
<g id="Group_3">
<path id="Vector" d="M12.1875 0C5.4675 0 0 5.4675 0 12.1875C0 17.6193 2.70719 20.2734 5.57281 23.0841C7.77006 25.2393 10.0424 27.5927 11.2985 31.3591C11.4257 31.7418 11.7837 32 12.1875 32C12.5913 32 12.9493 31.7418 13.0765 31.3591C14.3317 27.5926 16.604 25.2402 18.8013 23.0859C21.6678 20.2762 24.375 17.6221 24.375 12.1875C24.375 5.4675 18.9075 0 12.1875 0Z" fill="url(#paint0_linear_41_380)"/>
</g>
</g>
<g id="Group_4">
<g id="Group_5">
<path id="Vector_2" d="M20.2121 9.58099C20.1014 9.2413 19.8084 8.99411 19.455 8.94286L15.0147 8.29649L13.028 4.27274C12.8705 3.9523 12.5291 3.79211 12.1875 3.79211C11.846 3.79211 11.5046 3.95236 11.3471 4.27274L9.36037 8.29649L4.92005 8.94286C4.56668 8.99411 4.27368 9.2413 4.16293 9.58099C4.05305 9.91974 4.14462 10.2924 4.40005 10.5414L7.61355 13.6734L6.85549 18.0963C6.79505 18.4479 6.93974 18.8031 7.22812 19.0127C7.51837 19.2242 7.90287 19.2508 8.21505 19.0842L12.1875 16.9967L16.16 19.0841C16.4728 19.25 16.8562 19.2239 17.1469 19.0127C17.4353 18.8031 17.58 18.4478 17.5196 18.0962L16.7615 13.6733L19.975 10.5413C20.2304 10.2924 20.3219 9.91974 20.2121 9.58099Z" fill="url(#paint1_linear_41_380)"/>
</g>
</g>
</g>
<defs>
<linearGradient id="paint0_linear_41_380" x1="12.1875" y1="32" x2="12.1875" y2="0" gradientUnits="userSpaceOnUse">
<stop stop-color="#FD5900"/>
<stop offset="1" stop-color="#FFDE00"/>
</linearGradient>
<linearGradient id="paint1_linear_41_380" x1="12.1875" y1="19.1926" x2="12.1875" y2="3.79211" gradientUnits="userSpaceOnUse">
<stop stop-color="#FFE59A"/>
<stop offset="1" stop-color="#FFFFD5"/>
</linearGradient>
</defs>
</svg>
