<svg width="31" height="27" viewBox="0 0 31 27" fill="none" xmlns="http://www.w3.org/2000/svg">
<path id="rank" d="M31 14.625V26.4375C30.9996 26.5865 30.9411 26.7294 30.8374 26.8348C30.7337 26.9401 30.5931 26.9996 30.4464 27H22.6964C22.5497 26.9996 22.4092 26.9401 22.3055 26.8348C22.2018 26.7294 22.1433 26.5865 22.1429 26.4375V14.625C22.1433 14.4759 22.2018 14.3331 22.3055 14.2277C22.4092 14.1223 22.5497 14.0629 22.6964 14.0625H30.4464C30.5931 14.0629 30.7337 14.1223 30.8374 14.2277C30.9411 14.3331 30.9996 14.4759 31 14.625ZM19.375 11.8125H11.625C11.4783 11.8129 11.3378 11.8723 11.234 11.9777C11.1303 12.0831 11.0719 12.2259 11.0714 12.375V26.4375C11.0719 26.5865 11.1303 26.7294 11.234 26.8348C11.3378 26.9401 11.4783 26.9996 11.625 27H19.375C19.5217 26.9996 19.6622 26.9401 19.7659 26.8348C19.8697 26.7294 19.9281 26.5865 19.9286 26.4375V12.375C19.9281 12.2259 19.8697 12.0831 19.7659 11.9777C19.6622 11.8723 19.5217 11.8129 19.375 11.8125ZM8.30357 16.3125H0.553571C0.40689 16.3129 0.266341 16.3723 0.162621 16.4777C0.0589013 16.5831 0.000438076 16.7259 0 16.875V26.4375C0.000438076 26.5865 0.0589013 26.7294 0.162621 26.8348C0.266341 26.9401 0.40689 26.9996 0.553571 27H8.30357C8.45025 26.9996 8.5908 26.9401 8.69452 26.8348C8.79824 26.7294 8.8567 26.5865 8.85714 26.4375V16.875C8.8567 16.7259 8.79824 16.5831 8.69452 16.4777C8.5908 16.3723 8.45025 16.3129 8.30357 16.3125ZM6.26636 9.41061C6.68547 9.03194 6.98138 8.53274 7.11485 7.97924C7.24832 7.42574 7.21305 6.84408 7.01369 6.31143C6.81434 5.77877 6.46034 5.32027 5.99864 4.99676C5.53695 4.67325 4.98937 4.5 4.42854 4.5C3.86771 4.5 3.32013 4.67325 2.85843 4.99676C2.39673 5.32027 2.04273 5.77877 1.84338 6.31143C1.64403 6.84408 1.60875 7.42574 1.74222 7.97924C1.8757 8.53274 2.17161 9.03194 2.59072 9.41061C1.81975 9.76981 1.16609 10.3458 0.707005 11.0704C0.247915 11.7951 0.00258158 12.6382 0 13.5C0.00086308 13.7981 0.117785 14.0837 0.325228 14.2945C0.532671 14.5053 0.813776 14.6241 1.10714 14.625L7.75003 14.6251C9.59219 14.4356 8.75988 11.894 8.03789 10.9069C7.59419 10.2519 6.98116 9.73414 6.26636 9.41061ZM17.3378 4.91061C17.7569 4.53193 18.0528 4.03274 18.1863 3.47924C18.3197 2.92574 18.2845 2.34408 18.0851 1.81142C17.8858 1.27876 17.5318 0.820271 17.0701 0.496758C16.6084 0.173246 16.0608 0 15.5 0C14.9391 0 14.3916 0.173246 13.9299 0.496758C13.4682 0.820271 13.1142 1.27876 12.9148 1.81142C12.7155 2.34408 12.6802 2.92574 12.8137 3.47924C12.9471 4.03274 13.243 4.53193 13.6621 4.91061C12.8912 5.26981 12.2375 5.84578 11.7784 6.57044C11.3193 7.2951 11.074 8.13816 11.0714 8.99998C11.0723 9.29808 11.1892 9.58372 11.3967 9.79451C11.6041 10.0053 11.8852 10.1241 12.1786 10.125L18.8215 10.1251C20.6636 9.9356 19.8313 7.39404 19.1093 6.40686C18.6656 5.75191 18.0526 5.23414 17.3378 4.91061ZM23.25 12.375H29.8929C30.1862 12.3741 30.4673 12.2553 30.6748 12.0445C30.8822 11.8337 30.9991 11.5481 31 11.25C30.998 10.388 30.7529 9.54474 30.2937 8.81998C29.8345 8.09521 29.1806 7.51936 28.4093 7.16061C28.7027 6.89863 28.9376 6.57584 29.098 6.21393C29.2584 5.85202 29.3407 5.4594 29.3393 5.06248C29.3395 4.59325 29.2242 4.13142 29.0037 3.7191C28.7833 3.30679 28.4648 2.95711 28.0772 2.70195C27.6897 2.44679 27.2454 2.29427 26.785 2.2583C26.3246 2.22232 25.8626 2.30404 25.4412 2.496C25.0199 2.68796 24.6525 2.98405 24.3726 3.35727C24.0927 3.73049 23.9092 4.16897 23.8389 4.63272C23.7685 5.09648 23.8135 5.57075 23.9698 6.0123C24.1261 6.45384 24.3886 6.84861 24.7336 7.16061C23.9626 7.51981 23.3089 8.09578 22.8499 8.82044C22.3908 9.5451 22.1454 10.3882 22.1429 11.25C22.1437 11.5481 22.2606 11.8337 22.4681 12.0445C22.6755 12.2553 22.9566 12.3741 23.25 12.375Z" fill="url(#paint0_linear_41_391)"/>
<defs>
<linearGradient id="paint0_linear_41_391" x1="0" y1="13.5" x2="31" y2="13.5" gradientUnits="userSpaceOnUse">
<stop stop-color="#FFDE00"/>
<stop offset="1" stop-color="#FD5900"/>
</linearGradient>
</defs>
</svg>
