<svg width="28" height="28" viewBox="0 0 28 28" fill="none" xmlns="http://www.w3.org/2000/svg">
<circle cx="14" cy="14" r="14" fill="#4CD9A4"/>
<path fill-rule="evenodd" clip-rule="evenodd" d="M19.5384 20.6285C20.1757 20.6285 20.6923 20.1169 20.6923 19.4857V17.6571C20.6923 17.2784 21.0023 16.9714 21.3846 16.9714C21.767 16.9714 22.077 17.2784 22.077 17.6571V19.4857C22.077 20.8743 20.9405 22 19.5384 22H17.6924C17.31 22 17 21.6929 17 21.3143C17 20.9355 17.31 20.6285 17.6924 20.6285H19.5384Z" fill="#D9FFEE"/>
<path fill-rule="evenodd" clip-rule="evenodd" d="M19.5384 7.37143C20.1757 7.37143 20.6923 7.8831 20.6923 8.51429V10.3429C20.6923 10.7216 21.0023 11.0286 21.3846 11.0286C21.767 11.0286 22.077 10.7216 22.077 10.3429V8.51429C22.077 7.12568 20.9405 6 19.5384 6H17.6924C17.31 6 17 6.307 17 6.68572C17 7.06443 17.31 7.37143 17.6924 7.37143H19.5384Z" fill="#D9FFEE"/>
<path fill-rule="evenodd" clip-rule="evenodd" d="M8.46131 20.6285C7.82407 20.6285 7.30747 20.1169 7.30747 19.4857V17.6571C7.30747 17.2784 6.99751 16.9714 6.61516 16.9714C6.23281 16.9714 5.92285 17.2784 5.92285 17.6571V19.4857C5.92285 20.8743 7.05936 22 8.46131 22H10.3075C10.6898 22 10.9998 21.6929 10.9998 21.3143C10.9998 20.9355 10.6898 20.6285 10.3075 20.6285H8.46131Z" fill="#D9FFEE"/>
<path fill-rule="evenodd" clip-rule="evenodd" d="M8.46131 7.37143C7.82407 7.37143 7.30747 7.8831 7.30747 8.51429V10.3429C7.30747 10.7216 6.99751 11.0286 6.61516 11.0286C6.23281 11.0286 5.92285 10.7216 5.92285 10.3429V8.51429C5.92285 7.12569 7.05936 6 8.46131 6H10.3075C10.6898 6 10.9998 6.307 10.9998 6.68572C10.9998 7.06443 10.6898 7.37143 10.3075 7.37143H8.46131Z" fill="#D9FFEE"/>
<path fill-rule="evenodd" clip-rule="evenodd" d="M23 14C23 14.3787 22.69 14.6857 22.3077 14.6857H5.69231C5.30996 14.6857 5 14.3787 5 14C5 13.6214 5.30996 13.3143 5.69231 13.3143H22.3077C22.69 13.3143 23 13.6214 23 14Z" fill="#D9FFEE"/>
</svg>
