<svg width="24" height="25" viewBox="0 0 24 25" fill="none" xmlns="http://www.w3.org/2000/svg">
<g id="share-icn">
<path id="Vector" d="M20 16.8016C19.3941 16.8022 18.7963 16.9404 18.2517 17.2058C17.707 17.4712 17.2298 17.8568 16.856 18.3336L7.85999 13.8376C8.04408 13.1592 8.04408 12.444 7.85999 11.7656L16.856 7.26961C19.16 10.2256 24 8.59761 24 4.80162C24.0018 4.2311 23.8816 3.66679 23.6474 3.14656C23.4132 2.62633 23.0704 2.16223 22.642 1.7854C22.2137 1.40857 21.7096 1.12773 21.1638 0.961742C20.618 0.79575 20.0429 0.748443 19.4773 0.822996C18.9117 0.89755 18.3685 1.09224 17.8843 1.39399C17.4002 1.69575 16.9861 2.09759 16.67 2.57255C16.3539 3.0475 16.1431 3.58458 16.0517 4.14772C15.9603 4.71087 15.9904 5.28706 16.14 5.83762L7.14399 10.3336C4.84 7.37761 0 9.00561 0 12.8016C0 16.5976 4.84 18.2256 7.14399 15.2696L16.14 19.7656C15.9811 20.358 15.9606 20.979 16.0801 21.5806C16.1995 22.1821 16.4557 22.7482 16.8288 23.235C17.2019 23.7217 17.6819 24.1162 18.2318 24.3878C18.7817 24.6595 19.3867 24.8011 20 24.8016C25.308 24.5816 25.304 17.0216 20 16.8016ZM20 2.40162C23.172 2.50162 23.172 7.10161 20 7.20161C16.828 7.10161 16.828 2.50162 20 2.40162ZM4 15.2016C0.827999 15.1016 0.827999 10.5016 4 10.4016C7.17199 10.5016 7.17199 15.1016 4 15.2016ZM20 23.2016C16.828 23.1016 16.828 18.5016 20 18.4016C23.172 18.5016 23.172 23.1016 20 23.2016Z" fill="black"/>
</g>
</svg>
