<svg width="24" height="24" viewBox="0 0 24 24" fill="none" xmlns="http://www.w3.org/2000/svg">
  <circle cx="12" cy="12" r="12" fill="#4CD9A4" />
  <path
    d="M10.1604 18.0001C9.67268 18 9.205 17.8005 8.86021 17.4455L5.18224 13.66C4.84725 13.303 4.6619 12.8249 4.66609 12.3286C4.67028 11.8323 4.86368 11.3576 5.20464 11.0067C5.5456 10.6557 6.00684 10.4567 6.48902 10.4524C6.97119 10.448 7.43572 10.6388 7.78256 10.9836L10.1604 13.4309L16.2161 7.19807C16.563 6.85329 17.0275 6.66251 17.5097 6.66682C17.9919 6.67113 18.4531 6.87019 18.7941 7.22113C19.135 7.57206 19.3284 8.04679 19.3326 8.54307C19.3368 9.03934 19.1514 9.51746 18.8165 9.87444L11.4605 17.4455C11.1157 17.8005 10.6481 18 10.1604 18.0001Z"
    fill="url(#paint0_linear_833_1574)" />
  <defs>
    <linearGradient id="paint0_linear_833_1574" x1="8.86021" y1="7.19807" x2="15.3194" y2="13.4737"
      gradientUnits="userSpaceOnUse">
      <stop stop-color="#EFFFF4" />
      <stop offset="1" stop-color="#D1FFEC" />
    </linearGradient>
  </defs>
</svg>