<svg width="32" height="32" viewBox="0 0 32 32" fill="none" xmlns="http://www.w3.org/2000/svg">
<g clip-path="url(#clip0_99_48)">
<path d="M28.1957 18.1985C28.1999 18.1749 28.2041 18.1512 28.2082 18.1275C28.2268 18.0209 28.244 17.914 28.2597 17.8069C28.2668 17.759 28.2739 17.7112 28.2804 17.6632C28.2881 17.6062 28.2956 17.5491 28.3024 17.492C28.3116 17.4165 28.3201 17.3408 28.3278 17.265C28.3341 17.2039 28.3397 17.1427 28.3451 17.0815C28.3509 17.0157 28.3562 16.9497 28.3609 16.8837C28.3643 16.8366 28.3679 16.7895 28.3707 16.7424C28.3764 16.6476 28.3808 16.5526 28.3844 16.4574C28.3862 16.4091 28.3874 16.3608 28.3887 16.3125C28.3906 16.2395 28.3916 16.1663 28.3922 16.0929C28.3924 16.062 28.3937 16.0311 28.3937 16.0002C28.3937 15.897 28.3919 15.7941 28.3894 15.6913C28.3893 15.6895 28.3892 15.6877 28.3892 15.6859C28.3869 15.5959 28.3836 15.5063 28.3794 15.4167C28.3782 15.3917 28.377 15.3669 28.3757 15.342C28.3724 15.2814 28.3687 15.2209 28.3646 15.1606C28.3617 15.1174 28.359 15.0743 28.3557 15.0312C28.3547 15.0185 28.3534 15.0058 28.3524 14.9931C28.1184 12.0614 26.8652 9.33768 24.7628 7.23626C24.7449 7.21832 24.726 7.2022 24.7071 7.18588C23.4383 5.93023 21.8898 4.93815 20.1368 4.31757C19.6021 4.12788 19.019 4.40801 18.8299 4.94102C18.6413 5.47354 18.9204 6.05924 19.4534 6.24786C23.2981 7.60927 25.9661 11.1087 26.3086 15.1214C26.3107 15.1472 26.3132 15.1728 26.3152 15.1986C26.3175 15.2271 26.3191 15.2558 26.3211 15.2844C26.3251 15.3431 26.3289 15.4017 26.3319 15.4605C26.3326 15.4751 26.3333 15.4897 26.3341 15.5043C26.3418 15.6688 26.3459 15.8339 26.3459 15.9996C26.3459 16.03 26.3453 16.0602 26.345 16.0905C26.3445 16.1455 26.3438 16.2004 26.3424 16.2553C26.3413 16.2985 26.3401 16.3417 26.3385 16.3848C26.3356 16.4625 26.332 16.54 26.3273 16.6175C26.3249 16.6583 26.3218 16.6989 26.3189 16.7396C26.315 16.7937 26.3106 16.8477 26.306 16.9017C26.3016 16.951 26.2971 17.0003 26.2921 17.0495C26.2854 17.1156 26.2779 17.1816 26.2699 17.2475C26.2644 17.2932 26.2585 17.3387 26.2524 17.3841C26.246 17.4313 26.239 17.4784 26.232 17.5255C26.2202 17.6044 26.2076 17.6831 26.194 17.7615C26.1892 17.7894 26.1843 17.8173 26.1793 17.8451C25.5242 21.4443 22.9853 24.4992 19.4535 25.7504C18.9204 25.9385 18.6414 26.5242 18.83 27.0572C18.9787 27.4771 19.3736 27.7395 19.7952 27.7395C19.9083 27.7395 20.0237 27.7206 20.1363 27.6807C23.0017 26.6662 25.3211 24.6603 26.7638 22.1323C26.788 22.0992 26.8108 22.0646 26.8313 22.0279C27.4952 20.8367 27.9544 19.5394 28.1957 18.1985Z" fill="white"/>
<path d="M16.976 3.02449L11.3438 0.114116C10.8401 -0.144952 10.2233 0.0519894 9.96431 0.554C9.70418 1.05657 9.90163 1.6739 10.4036 1.93347L15.1267 4.37352L12.6141 9.23919C12.3545 9.7412 12.5519 10.3591 13.0545 10.6187C13.2048 10.6963 13.3651 10.7329 13.5232 10.7329C13.8943 10.7329 14.252 10.5305 14.4345 10.1782L17.416 4.4034C17.6755 3.90145 17.478 3.28412 16.976 3.02449Z" fill="white"/>
<path d="M12.5478 25.7498C8.42485 24.2899 5.65479 20.3722 5.65479 15.9996C5.65479 15.7833 5.66148 15.5676 5.67479 15.3529C5.67492 15.3507 5.6751 15.3485 5.67523 15.3463C5.67923 15.2823 5.68392 15.2184 5.6891 15.1545C5.69148 15.1259 5.69417 15.0973 5.69673 15.0687C5.69998 15.0326 5.70323 14.9966 5.70679 14.9606C5.71179 14.9114 5.71717 14.8624 5.72279 14.8134C5.72435 14.7996 5.72592 14.7857 5.72754 14.7719C6.1908 10.9063 8.81492 7.56891 12.5472 6.24713C13.0803 6.05906 13.3593 5.47336 13.1707 4.94029C12.9821 4.40672 12.3981 4.12715 11.8639 4.31684C8.28291 5.58474 5.55491 8.40093 4.32495 11.8504C4.3092 11.8839 4.29482 11.9184 4.28251 11.9543C3.91344 13.0245 3.69481 14.1353 3.62868 15.2653C3.62843 15.2693 3.62831 15.2733 3.62806 15.2773C3.62368 15.353 3.61981 15.4288 3.61681 15.5048C3.61562 15.534 3.61506 15.5633 3.61412 15.5925C3.61243 15.6448 3.6105 15.6971 3.6095 15.7494C3.60781 15.8326 3.60693 15.916 3.60693 15.9995C3.60693 16.0823 3.60781 16.1649 3.60943 16.2474C3.66131 18.934 4.55564 21.469 6.20561 23.5931C6.22793 23.6219 6.25187 23.6486 6.27649 23.6743C7.6939 25.4708 9.60987 26.8824 11.8639 27.6805C11.977 27.7204 12.0924 27.7393 12.2056 27.7393C12.6272 27.7393 13.0221 27.4763 13.1713 27.0565C13.3599 26.5241 13.0809 25.9384 12.5478 25.7498Z" fill="white"/>
<path d="M21.5958 30.0653L16.8733 27.6269L19.3849 22.7601C19.6445 22.2576 19.447 21.6402 18.9445 21.3806C18.4414 21.1199 17.8246 21.3196 17.565 21.8211L14.5836 27.5975C14.324 28.1 14.5214 28.7174 15.024 28.977L20.6563 31.8857C20.8066 31.9634 20.9669 32 21.125 32C21.496 32 21.8538 31.7981 22.0363 31.4447C22.2958 30.9427 22.0984 30.3248 21.5958 30.0653Z" fill="white"/>
</g>
<defs>
<clipPath id="clip0_99_48">
<rect width="32" height="32" fill="white"/>
</clipPath>
</defs>
</svg>
