<svg width="20" height="19" viewBox="0 0 20 19" fill="none" xmlns="http://www.w3.org/2000/svg">
<path d="M12.8409 1.19972C12.1026 0.461433 11.0644 0 9.93389 0C8.80339 0 7.78823 0.461433 7.02687 1.19972C6.28858 1.93802 5.82715 2.97623 5.82715 4.10674C5.82715 5.23725 6.28858 6.27547 7.02687 7.01376C7.76516 7.75205 8.80339 8.21348 9.93389 8.21348C11.0644 8.21348 12.1026 7.75205 12.8409 7.01376C13.5792 6.27547 14.0406 5.23725 14.0406 4.10674C14.0406 2.97623 13.5792 1.93802 12.8409 1.19972Z" fill="white"/>
<path d="M19.1388 18.9187C19.1388 16.427 18.1236 14.189 16.4625 12.5509C14.8013 10.9129 12.5172 9.92078 9.9563 9.92078C7.39535 9.92078 5.11126 10.9359 3.47318 12.5509C1.81203 14.189 0.796875 16.427 0.796875 18.9187H19.1619H19.1388Z" fill="white"/>
</svg>
